<svg id="圖層_1" data-name="圖層 1" xmlns="http://www.w3.org/2000/svg" viewBox="0 0 397.19 256.04"><defs><style>.cls-1{fill:#fff;}</style></defs><path class="cls-1" d="M297,275.66l-34.69,33.67c-44.37-43.37-130.71-11.78-130.71,60.9,0,98.58,139.93,105.33,152.06,25.6H211.28v-44H332c13.7,71.59-32.53,146.47-120.68,146.47v0a127.81,127.81,0,0,1-128-128c0-113.88,135.1-167.7,213.72-94.68Z" transform="translate(-83.26 -242.33)"/><polygon class="cls-1" points="287.56 115.02 324.21 115.02 324.21 78.39 360.86 78.39 360.86 115.04 397.19 115.04 397.19 151.69 360.86 151.69 360.86 188.34 324.21 188.34 324.21 151.69 287.56 151.69 287.56 115.02"/></svg>