<svg id="圖層_1" data-name="圖層 1" xmlns="http://www.w3.org/2000/svg" viewBox="0 0 638.44 518.87"><defs><style>.cls-1{fill:#fff;}</style></defs><path class="cls-1" d="M221.86,596.17c240.93,0,372.68-199.61,372.68-372.69,0-5.67-.11-11.32-.37-16.93a266.54,266.54,0,0,0,65.34-67.83,261.42,261.42,0,0,1-75.22,20.63,131.52,131.52,0,0,0,57.6-72.46,262.67,262.67,0,0,1-83.18,31.8A131.09,131.09,0,0,0,335.5,238.14a371.93,371.93,0,0,1-270-136.85,131.11,131.11,0,0,0,40.55,174.86,130,130,0,0,1-59.32-16.38c0,.55,0,1.09,0,1.68A131,131,0,0,0,151.8,389.85a130.82,130.82,0,0,1-59.16,2.25,131.14,131.14,0,0,0,122.37,91A262.8,262.8,0,0,1,52.32,539.14a266.65,266.65,0,0,1-31.25-1.81,370.77,370.77,0,0,0,200.79,58.84" transform="translate(-21.07 -77.31)"/></svg>