<svg id="layer2" xmlns="http://www.w3.org/2000/svg" viewBox="0 0 1121.25 351.5">
  <g id="bf">
    <path d="M530.86,314.46c-29.4,0-64.8,19.2-64.8,49.2,0,7.8,2.4,13.2,6,17.4a29.88,29.88,0,0,1-12.9,3c-15.3,0-24.3-13.5-24.3-28.5,0-33.3,54-55.2,100.8-55.2,37.2,0,64.51,8.7,64.51,43.5,0,23.1-17.11,50.1-47.11,66l.3.3c31.5,0,45.31,16.8,45.31,38.1,0,36.31-39.61,85.51-96.91,85.51-33,0-60.6-9-60.6-22.8,0-6.6,3.6-12.9,12-15.6A81.65,81.65,0,0,0,467,505l34.2-161.41c3-14.1,14.7-19.2,25.8-19.2a27.06,27.06,0,0,1,14.4,3.9L524,409.56c24.6-7.5,43.2-37.8,43.2-62.1C567.16,324.36,555.46,314.46,530.86,314.46Zm-10.2,110.4-19.2,89.71h.3c30.9,0,58.5-32.7,58.5-64.81,0-15.6-8.4-26.7-26.1-26.7A55.81,55.81,0,0,0,520.66,424.86Z" transform="translate(-432.36 -297.86)" fill="none" stroke="#000" stroke-miterlimit="10" stroke-width="5"/>
    <path d="M661.06,412.56c12-24.3,24.9-32.7,38.7-32.7,14.4,0,21.9,11.4,21.9,23.7,0,13.5-8.4,28.2-24,28.2a29,29,0,0,1-8.7-1.2c2.1-1.8,3.3-5.7,3.3-9.3,0-4.2-3-7.5-9.3-7.5-9.9,0-24,13.5-39.3,82.81l-3.6,18.3c-3,13.8-14.4,18.9-25.2,18.9a26,26,0,0,1-14.1-3.9l24.6-115.21c.9-4.8-.3-7.5-3-7.5-1.5,0-3.3,1.2-6,3.6-3.9-2.4-6-11.7,0-16.5,10.2-8.1,21-14.4,33.6-14.4,10.8,0,16.8,5.1,14.4,16.5Z" transform="translate(-432.36 -297.86)" fill="none" stroke="#000" stroke-miterlimit="10" stroke-width="5"/>
    <path d="M750.16,485.47c3,16.2,14.1,22.2,27.9,22.2,21.6,0,49.2-15.3,62.1-32.4,7.8-1.5,10.8,4.8,7.5,10.2-20.7,30.3-55.5,48.3-84.6,48.3-19.8,0-37.2-8.1-45.6-26.1a18.35,18.35,0,0,1-3.6,1.5c-11.7,3-22.5-5.7-20.4-17.4,6.9.9,12.9-.6,19.2-3.3a73.75,73.75,0,0,1-.6-8.4c0-39,25.8-101.41,75.3-101.41,27.3,0,34.2,15.3,34.2,28.8C821.56,433,808.06,453.36,750.16,485.47Zm-.9-12.91c29.1-18.29,48.9-39.3,48.9-58.8,0-6.9-3.6-11.7-8.7-11.7C759.76,402.06,750.16,451.56,749.26,472.56Z" transform="translate(-432.36 -297.86)" fill="none" stroke="#000" stroke-miterlimit="10" stroke-width="5"/>
    <path d="M943.06,388.56c5.1-6,12.9-8.7,20.4-8.7a26,26,0,0,1,14.1,3.9l-21,99.31c-3.6,16.8,1.2,22.2,9,22.2,11.1,0,24-7.5,31.5-15,3.3,1.5,5.1,4.2,5.1,7.2a10.44,10.44,0,0,1-2.7,6.6c-14.1,15.9-35.7,29.7-51.9,29.7-14.1,0-28.2-6.6-27.9-30.3-12.6,17.7-28.5,30.3-45.6,30.3-31.2,0-37.5-31.2-37.5-50.4,0-52.51,33.9-104.71,75.6-104.71C925.66,378.66,935.56,382,943.06,388.56Zm-6,15a41,41,0,0,0-14.1-2.4c-36.3,0-49.2,47.4-49.2,80.11,0,15,6.9,21.6,16.2,21.6,9.6,0,22.2-7.8,30.3-18.9Z" transform="translate(-432.36 -297.86)" fill="none" stroke="#000" stroke-miterlimit="10" stroke-width="5"/>
    <path d="M1037.55,448.56l6-1.5c19.2-5.7,29.1-16.8,29.1-34.8,0-8.4-1.2-14.1-4.2-18.6,3.9-8.1,12.9-13.8,23.4-13.8,11.4,0,16.8,6.3,16.8,22.5.3,24-18.6,42-37.5,51,4.2,17.41,12.9,49.51,33.6,49.51,6,0,12.6-5.4,20.4-12.6,3.3,1.5,5.1,4.2,5.1,7.2a10.44,10.44,0,0,1-2.7,6.6c-10.8,13.2-31.5,29.7-44.1,29.7-30,0-37.8-48-42.3-71.4l-6.9,1.8-10.8,50.7c-2.7,13.8-13.5,18.9-23.7,18.9a26,26,0,0,1-14.1-3.9L1023.15,352c1.2-4.8-.3-7.5-3-7.5-1.5,0-3.3,1.2-6,3.6-3.9-2.4-6-11.7,0-16.5,10.2-8.1,21-14.4,33.6-14.4,10.8,0,16.5,5.1,14.4,16.5Z" transform="translate(-432.36 -297.86)" fill="none" stroke="#000" stroke-miterlimit="10" stroke-width="5"/>
    <path d="M1176.75,398.76l-28.5,132.61c-17.4,81-33,115.5-75,115.5-18,0-33-9.9-33-35.1,0-5.1,3.9-8.1,9.9-8.1,2.4,10.8,9.3,16.5,20.7,16.5,20.4,0,29.1-27.6,42.3-88.8l28.5-132.61h-15c-1.5-9.6,3.3-17.4,12.6-17.4h6l2.4-10.8c8.4-38.7,33.9-62.1,62.4-62.1,25.5,0,37.8,9.6,37.8,29.1,0,16.8-9.9,25.2-21,24.6a24.16,24.16,0,0,1-12-4.2c3.3-7.2,4.8-15.3,4.8-19.5,0-5.7-3.6-8.7-11.1-8.7-13.8,0-21.3,20.1-26.1,42.6l-2.1,9h23.1c1.5,9.6-3.3,17.4-12.6,17.4Z" transform="translate(-432.36 -297.86)" fill="none" stroke="#000" stroke-miterlimit="10" stroke-width="5"/>
    <path d="M1303.35,388.56c5.1-6,12.9-8.7,20.4-8.7a26,26,0,0,1,14.1,3.9l-21,99.31c-3.6,16.8,1.2,22.2,9,22.2,11.1,0,24-7.5,31.5-15,3.3,1.5,5.1,4.2,5.1,7.2a10.44,10.44,0,0,1-2.7,6.6c-14.1,15.9-35.7,29.7-51.9,29.7-14.1,0-28.2-6.6-27.9-30.3-12.6,17.7-28.5,30.3-45.6,30.3-31.2,0-37.5-31.2-37.5-50.4,0-52.51,33.9-104.71,75.6-104.71C1286,378.66,1295.85,382,1303.35,388.56Zm-6,15a41,41,0,0,0-14.1-2.4c-36.3,0-49.2,47.4-49.2,80.11,0,15,6.9,21.6,16.2,21.6,9.6,0,22.2-7.8,30.3-18.9Z" transform="translate(-432.36 -297.86)" fill="none" stroke="#000" stroke-miterlimit="10" stroke-width="5"/>
    <path d="M1343.24,494.17c2.1-12.3,10.8-23.11,25.5-23.11,4.8,0,8.7,1.21,12,4.21-3.9,4.5-6.3,11.7-6.3,18.9,0,13.8,9.3,19.8,18.9,19.8a24,24,0,0,0,23.7-24c0-22.8-49.5-20.1-49.5-65.11,0-24,16.5-46.2,51.3-46.2,25.5,0,37.8,9.6,37.8,29.1,0,16.8-9.89,25.2-21,24.6a24.16,24.16,0,0,1-12-4.2c3-3.6,5.1-10.2,5.1-16.2,0-11.1-6.3-16.2-13.5-16.2-8.1,0-17.4,8.1-17.4,24.3,0,31.8,49.2,24.9,49.2,63,0,29.1-17.4,50.7-61.5,50.7C1353.44,533.77,1339.94,514.27,1343.24,494.17Z" transform="translate(-432.36 -297.86)" fill="none" stroke="#000" stroke-miterlimit="10" stroke-width="5"/>
    <path d="M1525,398.76l-17.7,84.31c-3.3,15.3.6,21.9,6.6,21.9,5.4,0,12.3-3.6,16.8-14.4,5.7,0,9,3,9,8.1,0,21-24.6,35.1-41.4,35.1-15,0-36-8.7-28.5-44.4l19.2-90.61h-15c-1.5-9.6,3.3-17.4,12.6-17.4h6l5.4-24.6c3-13.8,14.4-18.9,25.2-18.9a26,26,0,0,1,14.1,3.9l-8.4,39.6h21.9c1.5,9.6-3.3,17.4-12.6,17.4Z" transform="translate(-432.36 -297.86)" fill="none" stroke="#000" stroke-miterlimit="10" stroke-width="5"/>
  </g>
</svg>
