<svg id="layer3" xmlns="http://www.w3.org/2000/svg" viewBox="0 0 809 591.5">
  <g id="boat">
    <g id="body">
      <path d="M346.92,788a100.3,100.3,0,0,1-48.83,14.66c-8.46.28-18.19-1.21-22.78-8.32s-1.81-16.83,4.1-22.67,14.21-8.51,22.3-10.39A174.31,174.31,0,0,1,351.33,757c-12.44-.75-25.33-1.64-36.26-7.6s-19.31-18.57-16.28-30.65c.87-3.49,2.8-6.91,6-8.65,2.64-1.45,5.79-1.56,8.8-1.64l23.57-.62c-11.66-.13-25.31-1.31-31.54-11.17-3.46-5.46-3.64-12.3-3.72-18.77-.06-5,.07-10.51,3.43-14.2,2.34-2.59,5.84-3.76,9.21-4.67a114.54,114.54,0,0,1,49.08-2.28C355.82,655,348,652.47,342,647.34s-10-13.3-8.39-21.06c2.05-9.75,12.32-16,22.26-16.74s19.64,2.78,29,6.25c-3.05-8.33-6.14-17.26-4-25.87s11.74-15.94,19.78-12.21c7.26,3.37,4,10.29,8,14.56,5.13,5.49,9.74,2.39,17.4,1.16,17.17-2.76,34.64-2.2,52-1.6,7.91.28,16,.58,23.42,3.34s14.23,8.44,16.22,16.11c2.41-8.63,11.31-14,20.1-15.7,6.71-1.31,14.1-.86,19.74,3s8.75,11.79,5.7,17.91c6.92-5.61,18.76-1.78,22,6.5s-1.73,18.5-9.9,22l28.62-.42c1.75,0,3.64,0,5.06,1s2.1,3.14,2.55,5c1.23,5.06,2.47,10.36,1.2,15.41s-5.94,9.66-11.1,9l25.37,16.69c8.16,5.37,17.44,13.48,14.84,22.89-2.74,9.93-15.89,11.63-26.19,11.35,12.26,2.81,27.21-3.79,36.61,4.57,7.12,6.34,5.93,18.82-.9,25.46s-17.45,8.09-26.76,6.07c12.73,6.64,24.64,15.71,32,28.07s9.4,28.4,2.86,41.19S636.64,852,623.21,846.88q1.14,13.32,2.27,26.63c.26,3.11.43,6.58-1.57,9-1.68,2-4.47,2.73-7.06,3.24-13.75,2.71-28.62,3.37-41.18-2.86-10.88-5.39-19.16-17.21-18.49-29q.6-2.7,1-5.43a22.22,22.22,0,0,0-1,5.43,82.55,82.55,0,0,1-42,55.34c-5.5,2.85-11.56,5.11-17.74,4.67-11.55-.82-20.65-11.08-23.89-22.19s-1.85-23-.44-34.45a564,564,0,0,1-45.94,37.08c-5.54,4-11.61,8.09-18.45,8.22-8.09.16-15.42-5.44-19.61-12.37s-5.84-15.05-7.42-23c-2.14-10.81-4.3-21.76-3.64-32.76a54,54,0,0,1,2.31-12.83,92.23,92.23,0,0,0,10.26-16.87,38,38,0,0,0-10.26,16.87,93.55,93.55,0,0,1-32.16,26.71c-3.79,1.9-9.1,3.24-11.7-.12a9.88,9.88,0,0,1-1.52-5.06c-1.19-10.94-2.38-22.09-.22-32.89C336.43,801.82,340.5,793.51,346.92,788Zm0,0c2-1.24,4-2.55,5.93-3.93A28,28,0,0,0,346.93,788Z" transform="translate(-75 -360.5)" fill="#fff8ef"/>
      <g>
        <path d="M346.93,788a28,28,0,0,1,5.93-3.93C350.93,785.41,349,786.72,346.93,788Z" transform="translate(-75 -360.5)" fill="none" stroke="#000" stroke-miterlimit="10"/>
        <line x1="271.93" y1="427.46" x2="271.92" y2="427.47" fill="none" stroke="#000" stroke-miterlimit="10"/>
        <path d="M380.34,821.61a93.55,93.55,0,0,1-32.16,26.71c-3.79,1.9-9.1,3.24-11.7-.12a9.88,9.88,0,0,1-1.52-5.06c-1.19-10.94-2.38-22.09-.22-32.89,1.69-8.43,5.76-16.74,12.18-22.28" transform="translate(-75 -360.5)" fill="none" stroke="#000" stroke-miterlimit="10"/>
        <path d="M380.34,821.61a38,38,0,0,1,10.26-16.87A92.23,92.23,0,0,1,380.34,821.61Z" transform="translate(-75 -360.5)" fill="none" stroke="#000" stroke-miterlimit="10"/>
        <path d="M557.18,853.89a82.55,82.55,0,0,1-42,55.34c-5.5,2.85-11.56,5.11-17.74,4.67-11.55-.82-20.65-11.08-23.89-22.19s-1.85-23-.44-34.45a564,564,0,0,1-45.94,37.08c-5.54,4-11.61,8.09-18.45,8.22-8.09.16-15.42-5.44-19.61-12.37s-5.84-15.05-7.42-23c-2.14-10.81-4.3-21.76-3.64-32.76a54,54,0,0,1,2.31-12.83" transform="translate(-75 -360.5)" fill="none" stroke="#000" stroke-miterlimit="10"/>
        <path d="M557.18,853.89a22.22,22.22,0,0,1,1-5.43Q557.78,851.19,557.18,853.89Z" transform="translate(-75 -360.5)" fill="none" stroke="#000" stroke-miterlimit="10"/>
        <path d="M346.92,788a100.3,100.3,0,0,1-48.83,14.66c-8.46.28-18.19-1.21-22.78-8.32s-1.81-16.83,4.1-22.67,14.21-8.51,22.3-10.39A174.31,174.31,0,0,1,351.33,757c-12.44-.75-25.33-1.64-36.26-7.6s-19.31-18.57-16.28-30.65c.87-3.49,2.8-6.91,6-8.65,2.64-1.45,5.79-1.56,8.8-1.64l23.57-.62c-11.66-.13-25.31-1.31-31.54-11.17-3.46-5.46-3.64-12.3-3.72-18.77-.06-5,.07-10.51,3.43-14.2,2.34-2.59,5.84-3.76,9.21-4.67a114.54,114.54,0,0,1,49.08-2.28C355.82,655,348,652.47,342,647.34s-10-13.3-8.39-21.06c2.05-9.75,12.32-16,22.26-16.74s19.64,2.78,29,6.25c-3.05-8.33-6.14-17.26-4-25.87s11.74-15.94,19.78-12.21c7.26,3.37,4,10.29,8,14.56,5.13,5.49,9.74,2.39,17.4,1.16,17.17-2.76,34.64-2.2,52-1.6,7.91.28,16,.58,23.42,3.34s14.23,8.44,16.22,16.11c2.41-8.63,11.31-14,20.1-15.7,6.71-1.31,14.1-.86,19.74,3s8.75,11.79,5.7,17.91c6.92-5.61,18.76-1.78,22,6.5s-1.73,18.5-9.9,22l28.62-.42c1.75,0,3.64,0,5.06,1s2.1,3.14,2.55,5c1.23,5.06,2.47,10.36,1.2,15.41s-5.94,9.66-11.1,9l25.37,16.69c8.16,5.37,17.44,13.48,14.84,22.89-2.74,9.93-15.89,11.63-26.19,11.35,12.26,2.81,27.21-3.79,36.61,4.57,7.12,6.34,5.93,18.82-.9,25.46s-17.45,8.09-26.76,6.07c12.73,6.64,24.64,15.71,32,28.07s9.4,28.4,2.86,41.19S636.64,852,623.21,846.88q1.14,13.32,2.27,26.63c.26,3.11.43,6.58-1.57,9-1.68,2-4.47,2.73-7.06,3.24-13.75,2.71-28.62,3.37-41.18-2.86-10.88-5.39-19.16-17.21-18.49-29" transform="translate(-75 -360.5)" fill="none" stroke="#000" stroke-miterlimit="10"/>
        <path d="M518.13,798.36c7.68,0,14.59-4.67,22.18-5.87,4.21-.66,8.51-.22,12.75.22l29,3" transform="translate(-75 -360.5)" fill="none" stroke="#000" stroke-miterlimit="10"/>
        <path d="M389.28,788.63a28.41,28.41,0,0,1,20.67-.15c2.48,1,4.85,2.28,7.47,2.75,4.29.78,8.64-.82,13-1s9.6,1.86,10.15,6.2" transform="translate(-75 -360.5)" fill="none" stroke="#000" stroke-miterlimit="10"/>
        <path d="M466.68,756.63a45.37,45.37,0,0,1,19.95-15.21c6.81-2.64,15.64-3.1,20.35,2.47" transform="translate(-75 -360.5)" fill="none" stroke="#000" stroke-miterlimit="10"/>
        <path d="M504.57,706.2c4.12-11.21,17.31-18.21,28.9-15.34a7,7,0,0,0,3.22.34c1.31-.31,2.24-1.44,3.23-2.36,4-3.72,10-4.63,15.32-3.67s10.26,3.56,15.07,6.11" transform="translate(-75 -360.5)" fill="none" stroke="#000" stroke-miterlimit="10"/>
        <path d="M419.81,688.76c4.27,1.48,9-.07,13.47.68a13.53,13.53,0,0,1,10.8,10.89c4.34-3.31,9.06-6.47,14.45-7.33s11.61,1.21,14,6.1" transform="translate(-75 -360.5)" fill="none" stroke="#000" stroke-miterlimit="10"/>
      </g>
    </g>
    <g>
      <g>
        <path d="M75.5,801.5h808A149.72,149.72,0,0,1,874,854.28H85.05A149.72,149.72,0,0,1,75.5,801.5Z" transform="translate(-75 -360.5)" fill="#b9945e"/>
        <path d="M873.94,854.28h0A150.15,150.15,0,0,1,835,912H124.05a150.15,150.15,0,0,1-39-57.7H873.94Z" transform="translate(-75 -360.5)" fill="#b47a51"/>
        <path d="M124.05,912H835A149.43,149.43,0,0,1,733.5,951.5h-508A149.43,149.43,0,0,1,124.05,912Z" transform="translate(-75 -360.5)" fill="#a0653e"/>
      </g>
      <g>
        <path d="M874,854.28a149.72,149.72,0,0,0,9.55-52.78H75.5a150,150,0,0,0,150,150h508A150.17,150.17,0,0,0,874,854.28Z" transform="translate(-75 -360.5)" fill="none" stroke="#000" stroke-miterlimit="10"/>
        <line x1="759.95" y1="551.48" x2="49.05" y2="551.48" fill="none" stroke="#000" stroke-miterlimit="10"/>
        <line x1="798.94" y1="493.78" x2="10.06" y2="493.78" fill="none" stroke="#000" stroke-miterlimit="10"/>
      </g>
    </g>
    <line x1="10.06" y1="493.78" x2="798.94" y2="493.78" fill="none" stroke="#000" stroke-linecap="round" stroke-linejoin="round" stroke-width="0"/>
    <line x1="759.95" y1="551.48" x2="49.05" y2="551.48" fill="none" stroke="#000" stroke-linecap="round" stroke-linejoin="round" stroke-width="0"/>
  </g>
  <g id="head">
    <g>
      <path d="M623.62,453.59c3.18,2.32,68.2,50.23,40.88,62.91-28,13-80-11-80-11l-1.42.3a112.67,112.67,0,0,0-12.33-33,43.8,43.8,0,0,0,5.08-15.15c.44,2.36,2.85,14,11.61,19.51,11.06,7,26.36.62,32.89-12.62A36.35,36.35,0,0,0,623.62,453.59Z" transform="translate(-75 -360.5)" fill="#969696"/>
      <path d="M623.62,453.59a36.35,36.35,0,0,1-3.29,11c-6.53,13.24-21.83,19.63-32.89,12.62-8.76-5.55-11.17-17.15-11.61-19.51a43.8,43.8,0,0,1-5.08,15.15c-5.39,9.65-14.18,16.12-24,17-15.89,1.4-30.88-12.35-33.86-32.13-3.76,21.68-20.91,35.32-37,32-13.23-2.77-24-16.65-25.81-34.18-1.28,12.47-8.75,22.57-18.44,25.17-8.95,2.4-19.27-1.73-24.28-11.05a28.81,28.81,0,0,1-3.14-13.37c-6,9.13-13.82,14.81-21.51,16a18.41,18.41,0,0,1-9.12-.79c-7.75-2.75-15.7-11.6-14.51-18.36,1.74-9.91,7.92-13.47,7.54-16.33-.32-2.41-1.33,3.73-10.14-4.26-.41-.37-.83-.77-1.27-1.2-5.56-5.44-8.36-14.62-7.74-23,.79-10.78,7.1-17.2,11.61-21.8,4.86-5,14-14.28,23.22-10.32,8.14,3.51,10.88,15.1,11.33,17.12.27-3.29,1.43-13,8-21.24,1-1.24,10.8-13.14,25.14-10.8,10.76,1.76,19.88,10.83,23.65,23.38,3.8-13.77,16.85-23,28.87-20.34s21.46,16.73,20.88,31.2c4.74-16.91,19.45-26,32.06-21.62,10.26,3.54,17.83,15.48,18.22,29.5,13.07-17.21,31.61-16.6,37.89-7.7,5.28,7.48,21.41,9.49-5.52,36.58,10.78-10.84,24.35-13.57,33.58-4.45C623,434.34,624.9,444.44,623.62,453.59Z" transform="translate(-75 -360.5)" fill="#fff8ef"/>
      <path d="M583.08,505.8c9.52,45-4.69,95.54-23.86,117.18-24.1,27.2-141.12,33.27-169-13.82-16.92-28.63-16-73.09-12.75-103.55a331.88,331.88,0,0,1,5.23-33.38c7.69-1.22,15.55-6.9,21.51-16a28.81,28.81,0,0,0,3.14,13.37c5,9.32,15.33,13.45,24.28,11.05,9.69-2.6,17.16-12.7,18.44-25.17,1.79,17.53,12.58,31.41,25.81,34.18,16.11,3.36,33.26-10.28,37-32,3,19.78,18,33.53,33.86,32.13,9.77-.86,18.56-7.33,24-17A112.67,112.67,0,0,1,583.08,505.8ZM532.5,528.5c0-16.57-7.16-30-16-30s-16,13.43-16,30,7.16,30,16,30S532.5,545.07,532.5,528.5Zm-80,0c0-16.57-7.16-30-16-30s-16,13.43-16,30,7.16,30,16,30S452.5,545.07,452.5,528.5Z" transform="translate(-75 -360.5)" fill="#eed3c4"/>
      <ellipse cx="441.5" cy="168" rx="16" ry="30"/>
      <ellipse cx="361.5" cy="168" rx="16" ry="30"/>
      <path d="M373.62,471.44a18.41,18.41,0,0,0,9.12.79,331.88,331.88,0,0,0-5.23,33.38l-1-.11s-63,31-72,8,52-81,52-81h0c8.81,8,9.82,1.85,10.14,4.26.38,2.86-5.8,6.42-7.54,16.33C357.92,459.84,365.87,468.69,373.62,471.44Z" transform="translate(-75 -360.5)" fill="#969696"/>
    </g>
    <g>
      <path d="M356.51,432.49c-.41-.37-.83-.77-1.27-1.2-5.56-5.44-8.36-14.62-7.74-23,.79-10.78,7.1-17.2,11.61-21.8,4.86-5,14-14.28,23.22-10.32,8.14,3.51,10.88,15.1,11.33,17.12.27-3.29,1.43-13,8-21.24,1-1.24,10.8-13.14,25.14-10.8,10.76,1.76,19.88,10.83,23.65,23.38,3.8-13.77,16.85-23,28.87-20.34s21.46,16.73,20.88,31.2c4.74-16.91,19.45-26,32.06-21.62,10.26,3.54,17.83,15.48,18.22,29.5,13.07-17.21,31.61-16.6,37.89-7.7,5.28,7.48,21.41,9.49-5.52,36.58,10.78-10.84,24.35-13.57,33.58-4.45,6.58,6.49,8.44,16.59,7.16,25.74a36.35,36.35,0,0,1-3.29,11c-6.53,13.24-21.83,19.63-32.89,12.62-8.76-5.55-11.17-17.15-11.61-19.51a43.8,43.8,0,0,1-5.08,15.15c-5.39,9.65-14.18,16.12-24,17-15.89,1.4-30.88-12.35-33.86-32.13-3.76,21.68-20.91,35.32-37,32-13.23-2.77-24-16.65-25.81-34.18-1.28,12.47-8.75,22.57-18.44,25.17-8.95,2.4-19.27-1.73-24.28-11.05a28.81,28.81,0,0,1-3.14-13.37c-6,9.13-13.82,14.81-21.51,16a18.41,18.41,0,0,1-9.12-.79c-7.75-2.75-15.7-11.6-14.51-18.36,1.74-9.91,7.92-13.47,7.54-16.33C366.33,434.34,365.32,440.48,356.51,432.49Z" transform="translate(-75 -360.5)" fill="none" stroke="#000" stroke-miterlimit="10"/>
      <path d="M382.76,472.15l0,.08a331.88,331.88,0,0,0-5.23,33.38c-3.29,30.46-4.17,74.92,12.75,103.55,27.84,47.09,144.86,41,169,13.82,19.17-21.64,33.38-72.18,23.86-117.18a112.67,112.67,0,0,0-12.33-33" transform="translate(-75 -360.5)" fill="none" stroke="#000" stroke-miterlimit="10"/>
      <ellipse cx="361.5" cy="168" rx="16" ry="30" fill="none" stroke="#000" stroke-miterlimit="10"/>
      <ellipse cx="441.5" cy="168" rx="16" ry="30" fill="none" stroke="#000" stroke-miterlimit="10"/>
      <path d="M356.5,432.5s-61,58-52,81,72-8,72-8" transform="translate(-75 -360.5)" fill="none" stroke="#000" stroke-miterlimit="10"/>
      <path d="M623.5,453.5l.12.09c3.18,2.32,68.2,50.23,40.88,62.91-28,13-80-11-80-11" transform="translate(-75 -360.5)" fill="none" stroke="#000" stroke-miterlimit="10"/>
      <path d="M460.5,570.22s6.82,11.25,18.15,11c5.48-.12,12-2.92,19.35-11" transform="translate(-75 -360.5)" fill="none" stroke="#000" stroke-miterlimit="10"/>
      <polyline points="403.65 220.67 403.65 220.71 403.65 233.67" fill="none" stroke="#000" stroke-miterlimit="10"/>
    </g>
  </g>
  <g id="eye">
    <ellipse cx="361.55" cy="182" rx="7.55" ry="8.5" fill="#fff"/>
    <ellipse cx="442.03" cy="182" rx="7.55" ry="8.5" fill="#fff"/>
  </g>
  <g id="mouth">
    <g>
      <path d="M508,606c0,1.18-1.53,2.27-4.16,3.2-19.78-3.9-41.76-.94-46.35-.25-2.23-.87-3.49-1.88-3.49-3,0-3.32,12.1-6,27-6S508,602.68,508,606Z" transform="translate(-75 -360.5)" fill="#fff"/>
      <path d="M503.84,609.2c-4.79,1.68-13.23,2.8-22.84,2.8-10.08,0-18.88-1.23-23.51-3C462.08,608.26,484.06,605.3,503.84,609.2Z" transform="translate(-75 -360.5)" fill="#601717"/>
    </g>
    <g>
      <path d="M457.49,609c-2.23-.87-3.49-1.88-3.49-3,0-3.32,12.1-6,27-6s27,2.68,27,6c0,1.18-1.53,2.27-4.16,3.2-4.79,1.68-13.23,2.8-22.84,2.8C470.92,612,462.12,610.77,457.49,609Z" transform="translate(-75 -360.5)" fill="none" stroke="#000" stroke-miterlimit="10"/>
      <path d="M456.63,609.09l.86-.14c4.59-.69,26.57-3.65,46.35.25l.2,0" transform="translate(-75 -360.5)" fill="none" stroke="#000" stroke-miterlimit="10"/>
    </g>
  </g>
  <g id="hands">
    <g>
      <path d="M409.42,723.75c9.12,15.78,10.49,32,3.08,36.33s-20.81-5.05-29.92-20.83-10.49-32-3.08-36.33S400.31,708,409.42,723.75Z" transform="translate(-75 -360.5)" fill="#969696"/>
      <path d="M588.26,707.36c6.88,4,5.07,20-4,35.77s-22.08,25.36-29,21.39-5.06-20,4-35.77S581.38,703.39,588.26,707.36Z" transform="translate(-75 -360.5)" fill="#969696"/>
    </g>
    <g>
      <path d="M409.42,723.75c9.12,15.78,10.49,32,3.08,36.33s-20.81-5.05-29.92-20.83-10.49-32-3.08-36.33S400.31,708,409.42,723.75Z" transform="translate(-75 -360.5)" fill="none" stroke="#000" stroke-miterlimit="10"/>
      <path d="M584.22,743.13c-9.11,15.79-22.08,25.36-29,21.39s-5.06-20,4-35.77,22.07-25.36,29-21.39S593.33,727.35,584.22,743.13Z" transform="translate(-75 -360.5)" fill="none" stroke="#000" stroke-miterlimit="10"/>
    </g>
  </g>
</svg>
