<svg id="shrimp" xmlns="http://www.w3.org/2000/svg" viewBox="0 0 436.97 627.43">
  <g>
    <g>
      <path d="M671.81,592.35c23-1.94,3.57,10.25,3.57,10.25s-61.08,36.53-144.71-34.36L545,548.51C597.38,613.14,669.06,592.58,671.81,592.35Z" transform="translate(-500.31 -238.5)" fill="#ba482b"/>
      <path d="M671.81,592.35c-2.75.23-74.43,20.79-126.86-43.84l-14.28,19.73c83.63,70.89,144.71,34.36,144.71,34.36S694.78,590.41,671.81,592.35Z" transform="translate(-500.31 -238.5)" fill="none" stroke="#000" stroke-miterlimit="10"/>
    </g>
    <path d="M540.91,573.29a25.5,25.5,0,1,1,6.31-35.51A25.51,25.51,0,0,1,540.91,573.29Z" transform="translate(-500.31 -238.5)" fill="#ba482b" stroke="#000" stroke-miterlimit="10"/>
  </g>
  <g>
    <g>
      <path d="M781.44,637.19c-21,4.82-1,10.74-1,10.74s62.71,16.91,122.17-74.48l-17.1-14.55C852.67,635.31,784,636.61,781.44,637.19Z" transform="translate(-500.31 -238.5)" fill="#ba482b"/>
      <path d="M781.44,637.19c2.51-.58,71.23-1.88,104.1-78.29l17.1,14.55c-59.46,91.39-122.17,74.48-122.17,74.48S760.44,642,781.44,637.19Z" transform="translate(-500.31 -238.5)" fill="none" stroke="#000" stroke-miterlimit="10" stroke-width="2"/>
    </g>
    <ellipse cx="908.48" cy="555.62" rx="28" ry="24.5" transform="translate(-612.06 11.86) rotate(-14.79)" fill="#ba482b" stroke="#000" stroke-miterlimit="10" stroke-width="2"/>
  </g>
  <g id="shrimpBody">
    <g>
      <path d="M730,774.88c-.57,61.81-43.68,88.62-43.68,88.62s-51.92,7-83.06-10-13-67-13-67c8.65-44,39.61-36.52,39.61-36.52q4.18-.45,8.22-.66C657.23,759.93,695.5,778,730,774.88Z" transform="translate(-500.31 -238.5)" fill="#ba482b"/>
      <path d="M662.87,652.14a100.09,100.09,0,0,1-9.62-4.09c-34.7-17.13,11.09-75.3,11.09-75.3,9.81-15.25,89.83-1.25,111.37,8.22s15.66,70.63,2,80c-3.52,2.41-11.18,3.86-21.21,4.39C731.32,638.18,677.4,648.69,662.87,652.14Z" transform="translate(-500.31 -238.5)" fill="#ba482b"/>
      <path d="M662.87,652.14c27,9.92,68,14.55,93.63,13.19a42.68,42.68,0,0,1,4.34,5.48c17.28,25.85,8.93,60.13,1.28,80.41-4.57,12.09-13.51,20.46-23.89,22.5a78.16,78.16,0,0,1-8.24,1.16c0-.11,0-.22,0-.33s-35.43-28.32-91.9-25.23l-.11-.06c-14.07-7.8-22-27.4-18-46.44,6.51-31.7,39.26-49.75,39.26-49.75S660.52,652.7,662.87,652.14Z" transform="translate(-500.31 -238.5)" fill="#ba482b"/>
      <path d="M730,774.88c-34.49,3.07-72.76-15-91.89-25.56,56.47-3.09,91.9,25.23,91.9,25.23S730,774.77,730,774.88Z" transform="translate(-500.31 -238.5)" fill="#ba482b"/>
      <path d="M756.5,665.33c-25.62,1.36-66.68-3.27-93.63-13.19C677.4,648.69,731.32,638.18,756.5,665.33Z" transform="translate(-500.31 -238.5)" fill="#ba482b"/>
    </g>
    <g>
      <path d="M638.1,749.32q-4,.21-8.22.66s-31-7.48-39.61,36.52c0,0-18.17,50,13,67s83.06,10,83.06,10,43.11-26.81,43.68-88.62c0-.11,0-.22,0-.33S694.57,746.23,638.1,749.32Z" transform="translate(-500.31 -238.5)" fill="none" stroke="#000" stroke-miterlimit="10" stroke-width="2"/>
      <path d="M730,774.88a78.16,78.16,0,0,0,8.24-1.16c10.38-2,19.32-10.41,23.89-22.5,7.65-20.28,16-54.56-1.28-80.41a42.68,42.68,0,0,0-4.34-5.48c-25.18-27.15-79.1-16.64-93.63-13.19-2.35.56-3.67.93-3.67.93s-32.75,18-39.26,49.75c-3.91,19,4,38.64,18,46.44l.11.06" transform="translate(-500.31 -238.5)" fill="none" stroke="#000" stroke-miterlimit="10" stroke-width="2"/>
      <path d="M756.5,665.33c10-.53,17.69-2,21.21-4.39,13.66-9.34,19.54-70.51-2-80s-101.56-23.47-111.37-8.22c0,0-45.79,58.17-11.09,75.3a100.09,100.09,0,0,0,9.62,4.09" transform="translate(-500.31 -238.5)" fill="none" stroke="#000" stroke-miterlimit="10" stroke-width="2"/>
    </g>
  </g>
  <g id="shrimpHead">
    <g>
      <path d="M797.15,304.4s3,216.31-15,253.68c-8,16.47-27.1,19.66-27.1,19.66-70.76,17.7-96.35-25.56-96.35-25.56-39.54-28.86,58.71-247.78,58.71-247.78L740,265.06l-4.52,76.69L788.12,239.5l-15,102.25Z" transform="translate(-500.31 -238.5)" fill="#ba482b"/>
      <path d="M717.36,304.4s-98.25,218.92-58.71,247.78c0,0,25.59,43.26,96.35,25.56,0,0,19.14-3.19,27.1-19.66,18.07-37.37,15-253.68,15-253.68l-24.08,37.35,15-102.25L735.43,341.75,740,265.06Z" transform="translate(-500.31 -238.5)" fill="none" stroke="#040000" stroke-linecap="round" stroke-linejoin="round" stroke-width="2"/>
    </g>
    <path id="shrimpMouth" d="M707.65,535.83l-13.59-11.58a2.88,2.88,0,0,1,2-5.07l46.19,2.76a2.88,2.88,0,0,1,1.42,5.27l-14.86,9.88A17.64,17.64,0,0,1,707.65,535.83Z" transform="translate(-500.31 -238.5)" fill="#fff" stroke="#231815" stroke-linecap="round" stroke-linejoin="round"/>
    <ellipse cx="213.9" cy="212.82" rx="22.21" ry="25.32" fill="#fff" stroke="#000" stroke-miterlimit="10"/>
    <ellipse cx="250.49" cy="214.18" rx="22.21" ry="25.32" fill="#fff" stroke="#000" stroke-miterlimit="10"/>
  </g>
  <g id="eye">
    <circle cx="203.69" cy="220.5" r="7.5" stroke="#231815" stroke-linecap="round" stroke-linejoin="round"/>
    <circle cx="242.69" cy="222.5" r="7.5" stroke="#231815" stroke-linecap="round" stroke-linejoin="round"/>
  </g>
  <g id="eyebrow">
    <path id="right" d="M700.06,410.62s40.21-20,32.58-6.61S700.06,410.62,700.06,410.62Z" transform="translate(-500.31 -238.5)" stroke="#231815" stroke-linecap="round" stroke-linejoin="round"/>
    <path id="left" d="M778.82,428s-5.49-26.38-17.3-25.18c0,0-17.93,1.35-11.36,4.14S778.82,428,778.82,428Z" transform="translate(-500.31 -238.5)" stroke="#231815" stroke-linecap="round" stroke-linejoin="round"/>
  </g>
  <g id="arrow">
    <polygon id="al" points="26.19 322.75 46.11 288.25 6.27 288.25 26.19 322.75" fill="#fff"/>
    <polygon id="ar" points="408.19 322.75 428.11 288.25 388.27 288.25 408.19 322.75" fill="#fff"/>
  </g>
</svg>
