<svg id="圖層_1" data-name="圖層 1" xmlns="http://www.w3.org/2000/svg" viewBox="0 0 1920 274.08">
  <path d="M-.5,871.5c27.73-19.79,69.48-42.49,119-40,75.14,3.77,96.07,61.9,162,59,67.75-3,73.55-65.59,145-72,70.49-6.32,84.51,52.85,163,53,78.84.15,90.87-59.5,164-56,79.17,3.79,93.36,75,162,71,69.27-4.08,79.45-78.11,149-81,66.37-2.76,77.12,63.82,149,66,78.62,2.39,112.28-75.84,173-57,29.88,9.27,26.2,29.6,71,57,6.8,4.16,60.29,36.09,120,34,87.32-3.06,106.17-76,186-88,35.63-5.34,87.53.86,157,54v208H-.5Z" transform="translate(0.5 -805.42)" fill="aqua"/>
</svg>
