<svg id="Capa_1" data-name="Capa 1" xmlns="http://www.w3.org/2000/svg" viewBox="0 0 47.46 47.46"><title>food_ic</title><path d="M48.2,41.62,29.58,23,7.83,1.27H6.13l-.35.88A15.47,15.47,0,0,0,4.65,9a9.72,9.72,0,0,0,2.72,6.21l17,17L26.6,30,42.3,47.52a4.17,4.17,0,0,0,5.9-5.9Z" transform="translate(-1.96 -1.27)"/><path d="M16.49,28.29,3.19,41.58a4.17,4.17,0,1,0,5.9,5.9l13.3-13.29Z" transform="translate(-1.96 -1.27)"/><path d="M47.42,9.17l-7.54,7.54-2-2L45.45,7.2l-2-2-7.54,7.54-2-2,7.55-7.54-2-2-9.84,9.84a6.9,6.9,0,0,0-2,4.5,3.85,3.85,0,0,1-.28,1.25l6.39,6.39A3.91,3.91,0,0,1,35.05,23a7,7,0,0,0,4.5-2l9.84-9.84Z" transform="translate(-1.96 -1.27)"/></svg>