<svg id="圖層_1" data-name="圖層 1" xmlns="http://www.w3.org/2000/svg" viewBox="0 0 490.12 489.87"><defs><style>.cls-1{fill:#a56c3d;}.cls-2{fill:#f7dbb1;}.cls-3{fill:#ea8985;}.cls-4{fill:#b43022;}.cls-5{fill:#fff;}.cls-6{fill:#eddf27;opacity:0.5;}.cls-7{fill:#f39800;}.cls-8{fill:#cc5e3c;}.cls-9{fill:#b24235;}.cls-10{fill:#f09285;}.cls-11{fill:#c6603b;}.cls-12{fill:none;stroke:#211512;stroke-miterlimit:10;stroke-width:0.1px;}.cls-13{fill:#a31f24;}.cls-14{fill:#e5c64a;}</style></defs><path class="cls-1" d="M404.66,56.13c175.19,60.05,51.18,155.39,51.18,155.39l-6.35,249.91s-42.2,32-51,33c17.5-6.12,19.87-39.11,19.87-39.11l-.55-255.76c.84-.51,1.68-1,2.5-1.54C529.6,129.55,409.5,58.34,409.5,58.34Q407.06,57.22,404.66,56.13Z" transform="translate(-8.31 -5.53)"/><path class="cls-2" d="M409.5,58.34S529.6,129.55,420.28,198c-.82.52-1.66,1-2.5,1.54l.55,255.76s-2.37,33-19.87,39.11h0a16.79,16.79,0,0,1-4.39.92C372.55,497,30.52,462.54,30.52,462.54s-18.15,0-22-48.92S58.15,147.3,58.15,147.3-13,97.26,73,36.66c81.19-57.18,173.17-25.27,168.6,13.54a26.41,26.41,0,0,0-1.88,7,25.88,25.88,0,0,0,1.88-7c6.59-16.4,35.78-51.59,163,5.92h0Q407.06,57.21,409.5,58.34Z" transform="translate(-8.31 -5.53)"/><path class="cls-3" d="M406.47,118.07a69.16,69.16,0,0,1-4.81,30.16c-4,9.85-7.2,18.87-9.21,29.36q-3.06,16-6.18,31.92a42.72,42.72,0,0,1-2.74,9.82c-1.28,2.76-3.11,5-4.34,7.85a39.69,39.69,0,0,0-2.27,8.38q-1.73,8.81-3.43,17.61a20.63,20.63,0,0,0-.58,6.35c.55,4.48,4,6.56,6,9.94a17.2,17.2,0,0,1,1.91,10.43,12,12,0,0,1-2.09,5.95c-1.6,2.05-2.76,2.39-3.63,1.77-1.77-1.28-2.36-6.59-3-9.56q-2.39-10.38-4.2-21.07c-.57-3.4-1.11-7-.43-10.58s2.41-6.64,4-9.75a100.89,100.89,0,0,0,9.2-29.16c.76-4.88,1.18-9.83,2.45-14.59.67-2.51,1.57-4.93,2.32-7.41a113,113,0,0,0,2.75-12.44c1.34-7.46,2.6-15.05,5.25-22,2.34-6.18,5.71-11.71,7.85-18,2.07-6.08,2.74-13.56.05-18.18,1.46-1.4,3.18-1.95,4.26-.53A7.38,7.38,0,0,1,406.47,118.07Z" transform="translate(-8.31 -5.53)"/><path class="cls-4" d="M401.24,114.82c2.69,4.62,2,12.1-.05,18.18-2.14,6.3-5.51,11.83-7.85,18-2.65,7-3.91,14.58-5.25,22a113,113,0,0,1-2.75,12.44c-.75,2.48-1.65,4.9-2.32,7.41-1.27,4.76-1.69,9.71-2.45,14.59a100.89,100.89,0,0,1-9.2,29.16c-1.55,3.11-3.3,6.22-4,9.75s-.14,7.18.43,10.58q1.82,10.68,4.2,21.07c.68,3,1.27,8.28,3,9.56l-.65.72c-2.18.46-4.53.42-6.58,1.75-2.69,1.75-6.46,9.15-9.63,7.35s.22-9.81,1-13.19c1-4.13,2-8.93.31-12.12-1.49-2.86-4.71-3.5-5.76-6.76-2.7-8.38,1.89-16.58,4.44-24.36,3.11-9.48,7-18.7,9.53-28.36,1-3.81,1.81-7.68,2.61-11.54q6.53-31.57,13.06-63.16a17.86,17.86,0,0,0,.55-6c-.27-1.92-1.48-3.57-2.94-3.22.32-2.47,2.92-2.64,4.57-2,3,1.16,6.48,2.21,9.22-.59,2.09-2.12,3-5.73,4.42-8.67A9.56,9.56,0,0,1,401.24,114.82Z" transform="translate(-8.31 -5.53)"/><path class="cls-3" d="M216.76,121.4a71.28,71.28,0,0,1,5,29.51c-.49,10.38-.58,19.74.87,30.12s2.92,21,4.35,31.55a44.2,44.2,0,0,1,.6,10c-.29,3-1.2,5.66-1.42,8.64a39.84,39.84,0,0,0,.56,8.48q1.19,8.72,2.37,17.42a21.15,21.15,0,0,0,1.45,6.07c1.86,4,5.51,4.86,8.32,7.38a17.35,17.35,0,0,1,4.89,9.1,12.38,12.38,0,0,1,0,6.17c-.78,2.4-1.7,3.07-2.66,2.76-2-.63-4.11-5.37-5.61-7.93q-5.29-8.91-10.18-18.27a30.36,30.36,0,0,1-3.62-9.69c-.51-3.49.09-6.91.49-10.29a103.76,103.76,0,0,0-.82-29.91c-.83-4.77-2-9.5-2.31-14.31-.18-2.54-.13-5.07-.24-7.6a115.53,115.53,0,0,0-1.38-12.4c-1.11-7.35-2.33-14.78-2.14-22.09.18-6.47,1.46-12.65,1.4-19.16,0-6.29-1.73-13.45-5.54-16.9.86-1.74,2.21-2.8,3.61-1.81A7.5,7.5,0,0,1,216.76,121.4Z" transform="translate(-8.31 -5.53)"/><path class="cls-4" d="M211.13,120c3.81,3.45,5.5,10.61,5.54,16.9.06,6.51-1.22,12.69-1.4,19.16-.19,7.31,1,14.74,2.14,22.09a115.53,115.53,0,0,1,1.38,12.4c.11,2.53.06,5.06.24,7.6.34,4.81,1.48,9.54,2.31,14.31a103.76,103.76,0,0,1,.82,29.91c-.4,3.38-1,6.8-.49,10.29a30.36,30.36,0,0,0,3.62,9.69q4.89,9.36,10.18,18.27c1.5,2.56,3.65,7.3,5.61,7.93l-.36.88c-1.78,1.1-3.87,1.79-5.26,3.66-1.84,2.44-2.91,10.49-6.24,9.8s-2.82-9.19-3.14-12.58c-.36-4.14-1-8.89-3.44-11.35-2.19-2.18-5.22-1.78-7.15-4.49-5-6.94-3.42-16-3.56-24-.16-9.77.43-19.53-.29-29.29-.28-3.84-.77-7.69-1.25-11.53q-3.91-31.33-7.84-62.68a18.77,18.77,0,0,0-1.35-5.74c-.84-1.69-2.41-2.86-3.59-2.08-.48-2.39,1.76-3.35,3.41-3.27,3,.16,6.41,0,8-3.4,1.18-2.61.84-6.24,1.24-9.42A9.6,9.6,0,0,1,211.13,120Z" transform="translate(-8.31 -5.53)"/><path class="cls-5" d="M93.59,120.13c8.33-.59,15.21,3.4,23.6,4,9.4.63,14.79-4.59,23.28-6.89,13.93-3.78,32.15,11,42.15,20.4,13.65,12.81,8.15,30.43,5.09,46.6-1.85,9.78-3.16,19.15-2.25,29.09.69,7.54,4.12,16.1-.11,23.19-4.6,7.73-12.15,9.78-16,19-3.24,7.73-4.24,14.85-10.79,20.74-9.57,8.6-29.26,15.6-41.47,19.32-17.42,5.32-30.09-3.19-38.65-18-9.49-16.43-17.51-37.09-16.35-56.34.7-11.66,5-22.72,5.58-34.44,1-21.72-7.27-60.32,23.11-66.31A22.32,22.32,0,0,1,93.59,120.13Z" transform="translate(-8.31 -5.53)"/><ellipse class="cls-6" cx="117.97" cy="199.07" rx="38.7" ry="43.87"/><path class="cls-7" d="M95.18,193.49q2.37.85,2.37,2.07c0,1,0,2,.07,3.12q.48,9.94.49,13.72a4.29,4.29,0,0,1-.35,1.88c-.23.51-.5.77-.82.77s-.74-.31-1.1-.93a5,5,0,0,1-.9-2.56l-.62-6.24a61,61,0,0,0-.77-6.83,8.89,8.89,0,0,0-1.35-3.7c-.27-.3-.41-.52-.41-.65,0-.72.29-1.08.88-1.08A6.74,6.74,0,0,1,95.18,193.49ZM112.31,192a2.57,2.57,0,0,1,1.5,2.06,5,5,0,0,1-.9,2.75,26.34,26.34,0,0,0-1.8,5.73l-1.6,7.8a2.06,2.06,0,0,1-2,1.27c-1.33,0-2-.3-2-.89,0-.35,0-1,.11-2.1.29-2.79.51-5.24.66-7.33.14-2.28.22-4.11.22-5.51,0-.51-.31-.76-.92-.76a16.61,16.61,0,0,0-3.35.43,36.87,36.87,0,0,1-5.46.78,2.9,2.9,0,0,1-2-.91c-.78-.48-1.17-.82-1.17-1,0-.4.33-.61,1-.61a36.39,36.39,0,0,0,6.28-.95,22,22,0,0,0,5.15-1.8,3.73,3.73,0,0,1,1.55-.57A12.91,12.91,0,0,1,112.31,192Zm-3.37,18.18q1.62,1.14,1.62,1.89c0,.3-.15.45-.47.45a19.55,19.55,0,0,0-3.47.29l-4.89.67a13.26,13.26,0,0,1-2,.22,3.6,3.6,0,0,1-2.61-.72,2.06,2.06,0,0,1-.7-1.37c0-.6.37-.91,1.1-.91a31.47,31.47,0,0,0,6.19-1.17,11.38,11.38,0,0,1,2.12-.39A8.06,8.06,0,0,1,108.94,210.16Zm46.07.78q2.67,1.53,2.67,2.76c0,.73-1.23,1.09-3.7,1.09s-5.41-.14-8.42-.14-7.25.22-12.32.66a63.6,63.6,0,0,0-11.66,1.88,13,13,0,0,1-2.15.49,9.81,9.81,0,0,1-3.6-1.09c-1.7-.77-2.55-1.4-2.55-1.88s.55-.92,1.66-1a55.8,55.8,0,0,0,10.21-.78q6.16-.85,13.54-1.33A92.71,92.71,0,0,0,149.38,210a13.73,13.73,0,0,1,2-.31A20.54,20.54,0,0,1,155,210.94Zm-7.47-23.62q1.38.62,1.38,1.56c0,.47-.57.83-1.73,1.1a66.88,66.88,0,0,1-9,1.81,127,127,0,0,1-13.71,1.5,9.17,9.17,0,0,1-4.29-.71c-.81-.59-1.21-1.1-1.21-1.52s.85-.61,2.54-.68c4-.39,8.35-1,13.11-1.93a64,64,0,0,0,8.05-1.84,5.82,5.82,0,0,1,1.45-.38A7.71,7.71,0,0,1,147.54,187.32Zm-1,12.31c1.59.59,2.38,1.09,2.38,1.51,0,.67-1,1.22-2.88,1.63-2.15.18-4,.35-5.46.53l-10.19,1.31a63.27,63.27,0,0,1-6.46.53,10.66,10.66,0,0,1-3.07-.38c-1.23-.43-1.84-.9-1.84-1.41,0-.76,1-1.19,2.89-1.28q9.39-1,18.25-2.65c1.74-.28,2.7-.41,2.87-.41A19.64,19.64,0,0,1,146.54,199.63ZM123,176.3a18.76,18.76,0,0,1,5.34,2.28,5.13,5.13,0,0,1,1.57,3.94c0,2-.8,3-2.38,3a3.05,3.05,0,0,1-2-1,38.34,38.34,0,0,1-5.55-7.23,1.69,1.69,0,0,1-.47-.85c.11-.47.36-.71.74-.71A8.34,8.34,0,0,1,123,176.3Zm11.24,15.58c1.66.79,2.48,1.67,2.48,2.63a11.6,11.6,0,0,1-.49,1.5,25.85,25.85,0,0,0-.75,5.6l-.33,24.31A64.58,64.58,0,0,1,134,238.08c-.66,2.86-1.24,4.3-1.74,4.3s-1.07-1-1.4-3.07q-.17-4-.17-10.68V199.34a22,22,0,0,0-.66-5.91,7.4,7.4,0,0,1-.33-1.37,1.12,1.12,0,0,1,1.07-1.2A13,13,0,0,1,134.19,191.88Zm11.67-19.47q2.49,1.62,2.49,2.76c0,.23-.24.49-.72.79a14.51,14.51,0,0,0-3.17,2.57,65.47,65.47,0,0,1-7.16,6.26,11.73,11.73,0,0,1-3.18,1.67c-.24,0-.36-.12-.36-.38a67.86,67.86,0,0,0,5.59-8.92,12.68,12.68,0,0,0,1.63-4.9c0-.79.36-1.19,1.1-1.19A10.39,10.39,0,0,1,145.86,172.41Z" transform="translate(-8.31 -5.53)"/><path class="cls-8" d="M318.25,201.57c-.46,3.36-.95,6.73-1.46,10.13l-1.14-.17c-3.58.15-6.13-3.29-9.29-5a14.61,14.61,0,0,1-2.94-1.67c-2.16-1.94-1.22-5.59-2.75-8.05,3.15,2.12,12.17,6.86,16.12,4.93a1.92,1.92,0,0,0,.31-.18Z" transform="translate(-8.31 -5.53)"/><path class="cls-9" d="M316.79,211.7q-.9,6.06-1.81,12.26-1.43,9.85-2.52,19.85l-.5-.06-14.39-2.3s1.15,11.49,13.85,12.43q-.69,7.42-1.21,14.89c-.82,11.92-1.28,23.93-1.37,36l-15.78-2.37s-4.59,7.95,15.82,14.56c.2,15.39,1,30.78,2.52,46l-16.45-.8A34.55,34.55,0,0,0,312.72,375q1.9,15.81,4.8,31.31c3.29,17.57-14.95,13.78-23-2-23.19-45.5-20.82-81.08-20.76-128.32.06-43.12,7.27-84.42,17.25-126.17,2.3-9.61,3.95-25.35,15.31-28.7,12.78-3.77,13.34,22.84,14,30a187.47,187.47,0,0,1-.39,36.54c-.35,3.54.18,12-2.84,14a1.92,1.92,0,0,1-.31.18c-4,1.93-13-2.81-16.12-4.93,1.53,2.46.59,6.11,2.75,8.05a14.61,14.61,0,0,0,2.94,1.67c3.16,1.7,5.71,5.14,9.29,5ZM312,164.38c0-12.17-1.61-22-3.6-22s-3.6,9.86-3.6,22,1.61,22,3.6,22S312,176.54,312,164.38ZM284.59,280.94c0-39.38-.84-71.29-1.88-71.29s-1.88,31.91-1.88,71.29.84,71.29,1.88,71.29S284.59,320.31,284.59,280.94Z" transform="translate(-8.31 -5.53)"/><path class="cls-8" d="M312,243.75l.5.06c-.38,3.35-.73,6.7-1,10.07-12.7-.94-13.85-12.43-13.85-12.43Z" transform="translate(-8.31 -5.53)"/><path class="cls-8" d="M311.4,362.92q.59,6,1.32,12A34.55,34.55,0,0,1,295,362.12Z" transform="translate(-8.31 -5.53)"/><path class="cls-10" d="M308.36,142.35c2,0,3.6,9.86,3.6,22s-1.61,22-3.6,22-3.6-9.86-3.6-22S306.37,142.35,308.36,142.35Z" transform="translate(-8.31 -5.53)"/><path class="cls-8" d="M308.84,304.72q0,6.09,0,12.19c-20.41-6.61-15.82-14.56-15.82-14.56Z" transform="translate(-8.31 -5.53)"/><ellipse class="cls-11" cx="274.4" cy="275.41" rx="1.88" ry="71.29"/><path class="cls-12" d="M318.25,201.57c-.46,3.36-.95,6.73-1.46,10.13q-.9,6.06-1.81,12.26-1.43,9.85-2.52,19.85c-.38,3.35-.73,6.7-1,10.07q-.69,7.42-1.21,14.89c-.82,11.92-1.28,23.93-1.37,36q0,6.09,0,12.19c.2,15.39,1,30.78,2.52,46q.59,6,1.32,12,1.9,15.81,4.8,31.31c3.29,17.57-14.95,13.78-23-2-23.19-45.5-20.82-81.08-20.76-128.32.06-43.12,7.27-84.42,17.25-126.17,2.3-9.61,3.95-25.35,15.31-28.7,12.78-3.77,13.34,22.84,14,30a187.47,187.47,0,0,1-.39,36.54c-.35,3.54.18,12-2.84,14a1.92,1.92,0,0,1-.31.18c-4,1.93-13-2.81-16.12-4.93,1.53,2.46.59,6.11,2.75,8.05a14.61,14.61,0,0,0,2.94,1.67c3.16,1.7,5.71,5.14,9.29,5" transform="translate(-8.31 -5.53)"/><path class="cls-12" d="M312,243.75l-14.39-2.3s1.15,11.49,13.85,12.43" transform="translate(-8.31 -5.53)"/><path class="cls-12" d="M308.85,304.72h0l-15.78-2.37s-4.59,7.95,15.82,14.56" transform="translate(-8.31 -5.53)"/><path class="cls-12" d="M311.4,362.92l-16.45-.8A34.55,34.55,0,0,0,312.72,375" transform="translate(-8.31 -5.53)"/><ellipse class="cls-12" cx="274.4" cy="275.41" rx="1.88" ry="71.29"/><path class="cls-12" d="M312,164.38c0,12.16-1.61,22-3.6,22s-3.6-9.86-3.6-22,1.61-22,3.6-22S312,152.21,312,164.38Z" transform="translate(-8.31 -5.53)"/><path class="cls-13" d="M90.46,336.55a2.21,2.21,0,0,1,2.31,1.89c.53,1.89-.24,4-.66,5.86a47.27,47.27,0,0,0-1.23,13.25,52.55,52.55,0,0,0,2.68,12.64c1,3.37,2.42,7.46,1,10.93a2.58,2.58,0,0,0,.89,3.42c1,.61,2.9.35,3.42-.9,2-4.62,1.22-9.26-.18-13.93s-2.78-9.11-2.84-14a41.24,41.24,0,0,1,.57-7.28c.43-2.53,1.22-5,1.46-7.54A9.17,9.17,0,0,0,96,334.1a6.43,6.43,0,0,0-5.56-2.55,2.57,2.57,0,0,0-2.5,2.5,2.52,2.52,0,0,0,2.5,2.5Z" transform="translate(-8.31 -5.53)"/><path class="cls-13" d="M80.9,357.71c.2.06.81.31.33.08a6.26,6.26,0,0,1,.77.41l.33.22c.28.18-.29-.27,0,0s.44.4.64.61l.27.3c.17.21.08.14,0,0,.17.25.34.49.5.75s.26.47.37.72c0,.05.19.45.08.16s.09.26.09.26a16,16,0,0,1,.46,1.81l0,.25c0-.21,0-.22,0,0s0,.34,0,.51c0,.33,0,.67.05,1a39,39,0,0,1-.18,4.46,2.51,2.51,0,0,0,2.5,2.5,2.55,2.55,0,0,0,2.5-2.5c.25-3.27.47-6.78-.8-9.89a10.29,10.29,0,0,0-6.58-6.38,2.5,2.5,0,0,0-1.33,4.82Z" transform="translate(-8.31 -5.53)"/><path class="cls-13" d="M82.34,354.9a45.71,45.71,0,0,0,9.92.34,47.86,47.86,0,0,0,5-.69c.73-.14,1.45-.3,2.17-.48l1.17-.31.44-.12a1.37,1.37,0,0,1-1.32-.66l-.34-1.26c-.06-.54.49-.83-.17-.12a8,8,0,0,0-.79.95,5.47,5.47,0,0,0-.91,2.15,8.61,8.61,0,0,0,.82,5.16,22.42,22.42,0,0,0,2.29,3.63c.66,1,1.63,2.3,1.52,3.43,0,0-.07.52-.18.51s.72-.13,0-.21-1.56-.06-2.33-.09c-1.64-.06-3.29-.1-4.94,0a21.5,21.5,0,0,0-10.14,2.72c-2.76,1.65-.25,6,2.52,4.32,3.41-2,7.42-2.17,11.28-2.07,2.11.06,4.6.56,6.49-.62,2.06-1.29,2.6-4,2.18-6.18a14.29,14.29,0,0,0-2.87-5.48,11.56,11.56,0,0,1-1.33-2.18,4.07,4.07,0,0,1-.39-2c0,.16.1-.22.17-.33s.48-.48.61-.63a3.91,3.91,0,0,0,1.16-3.29,3.27,3.27,0,0,0-2.52-2.64,6.87,6.87,0,0,0-3.32.4,38.82,38.82,0,0,1-14.87.92,2.59,2.59,0,0,0-3.07,1.75,2.51,2.51,0,0,0,1.74,3.08Z" transform="translate(-8.31 -5.53)"/><path class="cls-13" d="M88.37,389.55l4.43-3.69L95,384l1-.87.5-.41s.44-.36.25-.22a7.65,7.65,0,0,1,.93-.59c.15-.08.47-.15.27-.12a3.21,3.21,0,0,1,.62,0c.41,0-.32-.07.09,0s.68.14,1,.22c1.84.43,3.63.64,5.35-.32a2.5,2.5,0,0,0-2.53-4.32l0,0c-.41.24.07,0-.14,0,0,0-.52,0-.27,0s-.23,0-.28-.05c-.83-.17-1.63-.39-2.47-.5a7,7,0,0,0-5.27,1.48c-3.18,2.41-6.17,5.1-9.23,7.65a2.5,2.5,0,0,0,0,3.53,2.54,2.54,0,0,0,3.53,0Z" transform="translate(-8.31 -5.53)"/><path class="cls-13" d="M106.28,336.89a14.07,14.07,0,0,1,4.26,11.21c-.38,4.87-3.07,9.22-2.43,14.24.55,4.41,3.37,8.09,4,12.44a10.46,10.46,0,0,1-1.29,6c-1,2.24-2.16,4.45-3.18,6.7-2.42,5.32-4.4,10.75-4.92,16.61a2.53,2.53,0,0,0,2.5,2.5,2.55,2.55,0,0,0,2.5-2.5c.44-5,2.27-9.77,4.33-14.29,1.09-2.38,2.29-4.72,3.36-7.11a15.29,15.29,0,0,0,1.75-7.43c-.33-4.67-3.24-8.47-4.06-13-.42-2.33.22-4.66.85-6.89a36.59,36.59,0,0,0,1.59-7.46,18.87,18.87,0,0,0-5.73-14.54c-2.31-2.24-5.85,1.29-3.54,3.53Z" transform="translate(-8.31 -5.53)"/><path class="cls-13" d="M109.17,340.39a22.71,22.71,0,0,0,8.3-.14c1.14-.23,2.22-.64,3.34-1l.68-.16c.47-.12-.24,0,.23-.05.21,0,.42,0,.64,0,0,0-.46,0-.17,0s-.24-.17-.33-.23c.39.27-.11,0,0-.11s.12.4.06.17,0,.17,0,.18a16.34,16.34,0,0,1,0,1.85c0,1.24-.18,2.47-.12,3.71a10.79,10.79,0,0,0,1,4.22c.12.25.26.49.36.75s0,.09,0,0c.24.66,0,.15,0,.1a3.62,3.62,0,0,0,.22-.63c0-.17.08,0-.09.08,0,0,.31-.21,0-.07l-.41.21h0l-.54.21c-.36.14-.73.26-1.1.38-.65.2-1.31.37-2,.51l-1,.18a5.09,5.09,0,0,1-.64.09c-.77.07-1.54.11-2.32.11a2.5,2.5,0,1,0,0,5,24.19,24.19,0,0,0,8.9-1.66c1.61-.64,3.27-1.52,3.73-3.35a4.64,4.64,0,0,0-.12-2.61c-.15-.42-.34-.83-.53-1.23-.08-.17-.17-.33-.25-.5.12.26-.08-.23-.11-.3a10.59,10.59,0,0,1-.22-3.79,18.07,18.07,0,0,0-.11-4.59,4.61,4.61,0,0,0-3.23-3.54,7.92,7.92,0,0,0-4.26.27,28.66,28.66,0,0,1-4.23,1.09,22.68,22.68,0,0,1-2.29.11l-1.17-.05c-.47,0-.8-.08-1.08-.13a2.57,2.57,0,0,0-3.07,1.75,2.54,2.54,0,0,0,1.75,3.08Z" transform="translate(-8.31 -5.53)"/><path class="cls-13" d="M114.35,368.45l8.38,1.13a2.75,2.75,0,0,0,1.93-.25,2.56,2.56,0,0,0,1.15-1.49,2.6,2.6,0,0,0-.25-1.93,2.41,2.41,0,0,0-1.5-1.15l-8.38-1.13a2.81,2.81,0,0,0-1.93.25,2.62,2.62,0,0,0-1.15,1.5,2.55,2.55,0,0,0,.26,1.93,2.37,2.37,0,0,0,1.49,1.14Z" transform="translate(-8.31 -5.53)"/><path class="cls-13" d="M117.43,383.07c.06-.14.39-.63.11-.29s.15-.08.23-.18c0,.06-.5.32-.21.18a1.74,1.74,0,0,0,.27-.14c.18-.15-.49.15-.26.1l.31-.1c.19-.06.38-.08.57-.13s-.57.05-.27,0l.34,0a3.71,3.71,0,0,1,1.2.05c-.1,0-.63-.1-.24,0l.34.06.76.14c.67.12,1.35.22,2,.29a7.45,7.45,0,0,0,3.94-.72,2.51,2.51,0,0,0,.89-3.42A2.57,2.57,0,0,0,124,378c.23-.11.4-.14.06,0l-.4.1c-.34.09.07-.05.18,0a2.88,2.88,0,0,0-.41,0,4.88,4.88,0,0,1-.76,0s-.6-.07-.17,0l-.18,0a23.26,23.26,0,0,0-3.42-.48c-2.22,0-4.84.83-5.81,3a2.75,2.75,0,0,0-.25,1.93A2.53,2.53,0,0,0,114,384c1.08.58,2.86.38,3.42-.89Z" transform="translate(-8.31 -5.53)"/><path class="cls-13" d="M131.76,337.21a21.21,21.21,0,0,0,9.14.45,18.82,18.82,0,0,0,4.08-1.17c.73-.31,1.46-.63,2.16-1l.53-.29a1.62,1.62,0,0,1-1.72-.38.46.46,0,0,1-.16-.23,2.42,2.42,0,0,1,.1.45c.4,2.48-.24,5.54-.45,8.17a14.8,14.8,0,0,0,1.49,8.64l2.16-3.76a37.64,37.64,0,0,0-15.61,1.32,2.5,2.5,0,0,0,1.33,4.82,34.14,34.14,0,0,1,14.28-1.14c2,.25,3-2.28,2.16-3.76-1.31-2.33-.93-5.21-.63-8a44.21,44.21,0,0,0,.35-4.45,9.42,9.42,0,0,0-.78-4.64,3.64,3.64,0,0,0-5-1.35,19.39,19.39,0,0,1-3.73,1.57,15.6,15.6,0,0,1-8.33-.05c-3.1-.87-4.43,4-1.33,4.82Z" transform="translate(-8.31 -5.53)"/><path class="cls-13" d="M131.47,365.88a38,38,0,0,0,7.69.11c1.31-.12,2.61-.29,3.91-.52.61-.1,1.22-.23,1.83-.37l.91-.21.45-.12c.48-.1.3-.17-.57-.2l-.89-.9c-.06-.57-.08-.62-.08-.15a.75.75,0,0,0-.12.47c-.09.41-.2.82-.32,1.23a25.2,25.2,0,0,1-1,2.8c-.69,1.65-1.51,3.23-2.28,4.84A55.63,55.63,0,0,0,137.32,383c-.69,2.64-1.44,5.72-3.83,7.35-2.85,2-6.39,2.32-8.94,4.85-2.29,2.26,1.24,5.8,3.53,3.53a12.43,12.43,0,0,1,4.34-2.34,15.84,15.84,0,0,0,5.36-3.11c2.78-2.69,3.75-6.57,4.68-10.19A66.54,66.54,0,0,1,147,371.9c1.3-2.8,5.33-10.76.25-12.09-1.29-.34-2.64.25-3.9.52a31.21,31.21,0,0,1-3.71.62,39,39,0,0,1-8.16-.07,2.52,2.52,0,0,0-2.5,2.5,2.55,2.55,0,0,0,2.5,2.5Z" transform="translate(-8.31 -5.53)"/><path class="cls-13" d="M129.29,370.31c2.52,1.84,3.28,5.48,4.11,8.28a36.92,36.92,0,0,0,4.67,10.68,18.53,18.53,0,0,0,8.69,7,13.36,13.36,0,0,0,5.71.75,12,12,0,0,1,3.27-.17c.14,0,.87.22.93.36a2.58,2.58,0,0,0,3.07,1.74,2.51,2.51,0,0,0,1.75-3.07,6.16,6.16,0,0,0-4.73-3.89c-2.14-.39-4.24.29-6.38.05-3.41-.39-6.38-2.84-8.23-5.61-2.23-3.33-3.29-7.12-4.45-10.91s-2.66-7.15-5.89-9.5a2.53,2.53,0,0,0-3.42.9,2.56,2.56,0,0,0,.9,3.42Z" transform="translate(-8.31 -5.53)"/><path class="cls-14" d="M254.87,233c1.94-1.93,3.87-3.87,5.87-5.75,1-.94,2-1.86,3-2.76.22-.19,2.66-2.24,1.41-1.27,4.45-3.47,7.25-4.9,11.37-5.88,3.11-.73,4.67-.69,7.1.53,3.6,1.82-.43-.64,1.13.79.91.84,1.76,1.73,2.61,2.63,1.7,1.79,3.29,3.7,5.08,5.4,9.48,9,22,11.53,34.75,10.29,6.86-.66,13.51-2.37,19.19-6.46,2.43-1.76,4.72-3.71,7-5.7.62-.53,2.63-2,.94-.9a21.23,21.23,0,0,1,3.82-2c7.46-3.18,9.11-14.16,5.39-20.53C359,193.67,350.49,192.81,343,196c-5.34,2.28-9.05,6.7-13.62,10.07,1.84-1.36-1.32.63-.21.14.93-.42-2.31.71-2.74.82l-1.59.3c1-.19,1-.23-.06-.13-1.36,0-2.72.07-4.08,0a37.16,37.16,0,0,1-4.22-.22c-1.61-.22.77.83-1.92-.55,1.83.94-1.45-1.39-.18-.25,1.07.95-1.82-1.82-1.74-1.75-4.07-4.12-7.64-8.42-12.55-11.65-10.39-6.84-24.55-7.26-36-3-12.07,4.52-21.47,13-30.45,22A15,15,0,1,0,254.87,233Z" transform="translate(-8.31 -5.53)"/><path class="cls-14" d="M258.66,300.2a67.35,67.35,0,0,1,20-8.63q2.49-.66,5-1.17c-.22,0,5-.85,2.8-.55,1.19-.15,2.39-.25,3.59-.3,1.93.13,2.38.09,1.33-.12L291,289a25,25,0,0,1,2.65,1.54c7.28,4.63,14.27,8,22.94,9a39.87,39.87,0,0,0,25.23-5.34,15,15,0,0,0-15.14-25.91c-1.62.81-1.78,1-.5.56a22.72,22.72,0,0,1-2.91.89l-1.49.31c1.47-.23,1.27-.28-.58-.14-.43,0-4.56-.66-2.15-.12-.68-.15-5.51-1.91-3.73-1.05-2.79-1.36-5.14-3.4-7.84-4.92a33,33,0,0,0-15.55-4.3c-16.62-.38-34.39,6.28-48.4,14.75a15.26,15.26,0,0,0-5.38,20.52c4.05,6.93,13.56,9.6,20.52,5.39Z" transform="translate(-8.31 -5.53)"/><path class="cls-14" d="M246.41,149.56l17.2-10.05a96.83,96.83,0,0,1,8.51-4.87c1.72-.78-2.09.05,1.46-.33l-.95.3c-1.32-.21-1.45-.19-.39.08s.94.26-.15-.19l1.33.68c1.09.63,2.19,1.24,3.27,1.89,2.24,1.36,4.44,2.74,6.79,3.88a92.12,92.12,0,0,0,19.21,6.63c24.75,5.79,54.17,9.55,76.21-6.28,6.57-4.72,9.74-13.07,5.38-20.53-3.8-6.49-13.91-10.13-20.52-5.38-8.86,6.37-17.33,7.66-28.62,7.17a130.07,130.07,0,0,1-34.54-6.74c-3.16-1-7.91-4.38-12-6.55-6.88-3.61-13.71-5.26-21.43-4.1-6.5,1-12.23,4.67-17.82,7.93l-18,10.56a15,15,0,1,0,15.14,25.9Z" transform="translate(-8.31 -5.53)"/></svg>