<?xml version="1.0" encoding="utf-8"?>
<!-- Generator: Adobe Illustrator 24.2.0, SVG Export Plug-In . SVG Version: 6.00 Build 0)  -->
<svg version="1.1" id="圖層_2_1_" xmlns="http://www.w3.org/2000/svg" xmlns:xlink="http://www.w3.org/1999/xlink" x="0px"
	 y="0px" viewBox="0 0 1200 500" style="enable-background:new 0 0 1200 500;" xml:space="preserve">
<style type="text/css">
	.st0{fill:#F05044;}
	.st1{fill:#662E91;}
	.st2{fill:#2BB673;}
	.st3{fill:#FBAD17;}
	.st4{fill:#FFFFFF;}
	.st5{fill:none;}
	.st6{font-family:'NotoSansTC-Bold-90ms-RKSJ-H';}
	.st7{font-size:50px;}
</style>
<g>
	<rect id="_4" x="900" class="st0" width="300" height="500"/>
	<polygon id="_3" class="st1" points="974,250 899,286.1 899,500 599,500 599,0 899,0 899,213.9 	"/>
	<polygon id="_2" class="st2" points="674,250 599,286.1 599,500 299,500 299,0 599,0 599,213.9 	"/>
	<polygon id="_1" class="st3" points="374,250 300,285.6 300,500 0,500 0,0 300,0 300,214.4 	"/>
</g>
<g>
	<path class="st4" d="M148.1,128c23.6,0,42.8,17.5,42.8,39s-19.2,39-42.8,39s-42.8-17.5-42.8-39S124.5,128,148.1,128L148.1,128z"/>
	<path class="st4" d="M73.1,238.9c0.2-14,16.8-26.2,41.2-32.1c4.1,6,17.7,10.5,33.8,10.5s29.7-4.4,33.8-10.5
		c24.4,5.9,41.4,18.1,41.2,32.1C222.5,291.1,72.5,290.9,73.1,238.9z"/>
</g>
<g>
	<path class="st4" d="M834.6,254.3l-58.9-58.7L707,127h-5.4l-1.1,2.8c-2.8,6.8-4,14.2-3.6,21.6c0.4,7.3,3.5,14.3,8.6,19.6l53.7,53.6
		l7-7l49.6,55.3c5.1,5.1,13.5,5.1,18.6,0C839.8,267.8,839.8,259.5,834.6,254.3z"/>
	<path class="st4" d="M734.4,212.3l-42,41.9c-5.1,5.1-5.1,13.5,0,18.6c5.1,5.1,13.5,5.1,18.6,0l0,0l42-41.9L734.4,212.3z"/>
	<path class="st4" d="M832.2,152l-23.8,23.8l-6.3-6.3l23.9-23.7l-6.3-6.3l-23.8,23.8l-6.3-6.3l23.9-23.8l-6.3-6.3l-31.1,31
		c-3.8,3.8-6,8.9-6.3,14.2c-0.1,1.4-0.4,2.7-0.9,3.9l20.2,20.2c1.3-0.4,2.8-0.6,4.2-0.6c5.4-0.3,10.4-2.6,14.2-6.3l31.1-31
		L832.2,152z"/>
</g>
<g>
	<g>
		<g>
			<path class="st4" d="M537.8,172.9c-5.1-5.1-13.5-5.1-18.6,0c-1.6,1.6-11.7,11.7-13.2,13.2v-34.8c0-3.5-1.4-6.8-3.9-9.3
				l-12.4-12.4c-2.5-2.5-5.8-3.9-9.3-3.9h-75.5c-7.3,0-13.2,5.9-13.2,13.2v123.6c0,7.3,5.9,13.2,13.2,13.2h87.9
				c7.3,0,13.2-5.9,13.2-13.2v-39.1l31.9-31.9C543,186.4,543,178.1,537.8,172.9z M479.6,134.5c0.8,0,2.4-0.1,3.9,1.3l12.4,12.4
				c1.4,1.4,1.3,2.9,1.3,3.9h-17.6V134.5z M497.1,262.6c0,2.4-2,4.4-4.4,4.4h-87.9c-2.4,0-4.4-2-4.4-4.4V138.9c0-2.4,2-4.4,4.4-4.4
				h65.9v22c0,2.4,2,4.4,4.4,4.4h22V195c0,0-13,13-13,13l-6.2,6.2c-0.5,0.5-0.8,1.1-1.1,1.7l-6.2,18.6c-0.5,1.6-0.1,3.3,1.1,4.5
				c1.2,1.2,2.9,1.6,4.5,1.1l18.6-6.2c0.6-0.2,1.2-0.6,1.7-1.1l0.5-0.5V262.6L497.1,262.6z M487.3,217.3l6.2,6.2l-2.4,2.4l-9.3,3.1
				l3.1-9.3L487.3,217.3z M499.7,217.3l-6.2-6.2c3.3-3.3,18-18,21.1-21.1l6.2,6.2L499.7,217.3z M531.6,185.4l-4.5,4.5l-6.2-6.2
				l4.5-4.5c1.7-1.7,4.5-1.7,6.2,0C533.3,180.9,533.3,183.6,531.6,185.4z"/>
		</g>
	</g>
	<g>
		<g>
			<path class="st4" d="M475.2,169.7h-61.5c-2.4,0-4.4,2-4.4,4.4c0,2.4,2,4.4,4.4,4.4h61.5c2.4,0,4.4-2,4.4-4.4
				C479.6,171.6,477.6,169.7,475.2,169.7z"/>
		</g>
	</g>
	<g>
		<g>
			<path class="st4" d="M457.6,187.3h-43.9c-2.4,0-4.4,2-4.4,4.4c0,2.4,2,4.4,4.4,4.4h43.9c2.4,0,4.4-2,4.4-4.4
				C462,189.2,460,187.3,457.6,187.3z"/>
		</g>
	</g>
	<g>
		<g>
			<path class="st4" d="M457.6,204.8h-43.9c-2.4,0-4.4,2-4.4,4.4c0,2.4,2,4.4,4.4,4.4h43.9c2.4,0,4.4-2,4.4-4.4
				C462,206.8,460,204.8,457.6,204.8z"/>
		</g>
	</g>
	<g>
		<g>
			<path class="st4" d="M457.6,222.4h-43.9c-2.4,0-4.4,2-4.4,4.4s2,4.4,4.4,4.4h43.9c2.4,0,4.4-2,4.4-4.4S460,222.4,457.6,222.4z"/>
		</g>
	</g>
</g>
<rect x="50.6" y="353.1" class="st5" width="206.5" height="58.2"/>
<text transform="matrix(1 0 0 1 50.6468 397.0881)" class="st4 st6 st7">進入會員</text>
<rect x="335.9" y="353.1" class="st5" width="246.6" height="72"/>
<text transform="matrix(1 0 0 1 335.9188 397.0885)" class="st4 st6 st7">登入&amp;註冊</text>
<rect x="647.1" y="353.1" class="st5" width="213.9" height="60.4"/>
<text transform="matrix(1 0 0 1 647.1281 397.0883)" class="st4 st6 st7">預約點餐</text>
<rect x="962.7" y="353.1" class="st5" width="226.6" height="55.1"/>
<text transform="matrix(1 0 0 1 962.7104 397.0884)" class="st4 st6 st7">來店取餐</text>
<path class="st4" d="M1074.8,241.8v-28.9c0-1.3-1.1-2.4-2.5-2.4c-15.3,0-17.4,25.4-17.5,26.4c-0.1,1,0.5,1.9,1.4,2.3l3.6,1.8v0.8
	l-1.9,18.8c-0.4,4,2.6,7.5,6.7,7.9c0.2,0,0.5,0,0.7,0h4c4.1,0,7.5-3.2,7.5-7.3c0-0.2,0-0.5,0-0.7L1074.8,241.8z M1060,235.6
	c0.4-3.4,1.2-6.7,2.3-10c1.9-5.5,4.4-8.8,7.5-9.9v23.8h-5c0-0.9-0.5-1.8-1.4-2.2L1060,235.6z M1071.1,262.9
	c-0.5,0.5-1.1,0.8-1.9,0.8h-4c-1.4,0-2.5-1.1-2.5-2.4c0-0.1,0-0.2,0-0.2l1.7-16.7h5.5l1.7,16.7
	C1071.8,261.7,1071.6,262.4,1071.1,262.9L1071.1,262.9z"/>
<path class="st4" d="M1153.8,127.9h-20c-1.4,0-2.5,1.1-2.5,2.4v2.4h-52.2c-2.3,0-4.5,0.6-6.5,1.6l-24.5,12.9h-29.4
	c-4.2,0-7.5,4.3-7.5,9.7c0,5.1,2.9,9.1,6.7,9.6l-11.3,36.9c0,0,0,0.1,0,0.1c-0.2,1-0.4,1.9-0.4,2.9v69c0,1.3,1.1,2.4,2.5,2.4h112.5
	c1.4,0,2.5-1.1,2.5-2.4v-68.8c0-1.2-0.2-2.3-0.5-3.4l-10.4-34.3c7,0,12.9-5.3,13.4-12.1h5v4.8c0,1.3,1.1,2.4,2.5,2.4h20
	c1.4,0,2.5-1.1,2.5-2.4v-31.5C1156.3,129,1155.2,127.9,1153.8,127.9z M1016.3,156.9c0-3,1.5-4.8,2.5-4.8h71.5l-10,9.7h-61.5
	C1017.8,161.8,1016.3,159.9,1016.3,156.9z M1094.2,203.6c-0.2,1-0.4,1.9-0.4,2.9v66.6h-82.5v-66.6c0-0.6,0.1-1.2,0.2-1.7l11.7-38.2
	h52.6c-3.1,5.1-1.4,11.6,3.9,14.6c3.9,2.2,8.8,1.9,12.4-0.7l12-9.1L1094.2,203.6C1094.2,203.5,1094.2,203.6,1094.2,203.6z
	 M1108.8,266.8l6.5,6.3h-12.9L1108.8,266.8z M1118.5,204.7c0.2,0.7,0.3,1.4,0.3,2v62.9l-7.5-7.3v-52.2c0-1.3-1.1-2.4-2.5-2.4
	s-2.5,1.1-2.5,2.4v52.2l-7.5,7.3v-63.1c0-0.6,0.1-1.2,0.2-1.7l9.8-32L1118.5,204.7z M1131.3,152.1h-6c-2.2,0-4,1.7-4,3.9
	c0,4.5-3.8,8.2-8.5,8.2h-6.1c-0.8,0-1.5,0.3-2.2,0.7l-15.6,11.7c-2.6,2-6.4,1.5-8.4-1c-1.9-2.3-1.7-5.6,0.5-7.7l17.1-16.6
	c1-0.9,1-2.5,0-3.4c-0.5-0.5-1.1-0.7-1.8-0.7h-37.7l16.4-8.7c1.3-0.7,2.7-1,4.1-1h52.2V152.1z M1151.3,159.4h-15v-26.6h15V159.4z"/>
<path class="st4" d="M1052.3,212.9c0-1.3-1.1-2.4-2.5-2.4c-1.4,0-2.5,1.1-2.5,2.4v7.3h-5v-7.3c0-1.3-1.1-2.4-2.5-2.4
	c-1.4,0-2.5,1.1-2.5,2.4v7.3h-5v-7.3c0-1.3-1.1-2.4-2.5-2.4c-1.4,0-2.5,1.1-2.5,2.4v9.7h0c0,0.4,0.1,0.7,0.3,1.1l4.7,9.1l-2.1,28
	c-0.3,4,2.8,7.5,6.9,7.8c0.2,0,0.4,0,0.5,0h4.3c4.1,0,7.5-3.2,7.5-7.3c0-0.2,0-0.3,0-0.5l-2.1-28l4.7-9.1c0.2-0.3,0.3-0.7,0.3-1.1h0
	V212.9z M1045.8,225l-2.5,4.8h-6.9l-2.5-4.8H1045.8z M1043.8,262.9c-0.5,0.5-1.1,0.8-1.8,0.8h-4.3c-1.4,0-2.5-1.1-2.5-2.4
	c0-0.1,0-0.1,0-0.2l2-26.4h5.3l2,26.4C1044.5,261.7,1044.2,262.4,1043.8,262.9z"/>
</svg>
